<svg xmlns="http://www.w3.org/2000/svg" xmlns:xlink="http://www.w3.org/1999/xlink" version="1.1" x="0px" y="0px" viewBox="0 0 693.9 324.2" style="enable-background:new 0 0 693.9 324.2;background: #1e22aa;" xml:space="preserve">
    <style type="text/css">
      .st0{display:none;}
      .st1{display:inline;}
      .st2{fill:#E6E7E8;}
      .st3{fill:none;stroke:#929497;stroke-width:2;stroke-linecap:round;stroke-miterlimit:10;}
      .st4{fill:none;stroke:#929497;stroke-width:2;stroke-linecap:round;stroke-miterlimit:10;stroke-dasharray:6.0375,10.0624;}
      .st5{fill:none;stroke:#929497;stroke-width:2;stroke-linecap:round;stroke-miterlimit:10;stroke-dasharray:6.1646,10.2743;}
      .st6{display:inline;fill:#FFFFFF;}
      .st7{fill:#FFFFFF;}
      .st8{fill:none;stroke:#929497;stroke-width:2;stroke-linecap:round;stroke-miterlimit:10;stroke-dasharray:5.9562,9.927;}
      .st9{fill:none;stroke:#929497;stroke-width:2;stroke-linecap:round;stroke-miterlimit:10;stroke-dasharray:5.3602,8.9337;}
      .st10{fill:none;stroke:#929497;stroke-width:2;stroke-linecap:round;stroke-miterlimit:10;stroke-dasharray:6.1491,10.2485;}
      .st11{fill:none;stroke:#929497;stroke-width:2;stroke-linecap:round;stroke-miterlimit:10;stroke-dasharray:6.1256,10.2094;}
      .st12{fill:none;stroke:#929497;stroke-width:2;stroke-linecap:round;stroke-miterlimit:10;stroke-dasharray:6.1114,10.1856;}
      .st13{fill:none;stroke:#929497;stroke-width:2;stroke-linecap:round;stroke-miterlimit:10;stroke-dasharray:6.2383,10.3972;}
      .st14{fill:none;stroke:#929497;stroke-width:2;stroke-linecap:round;stroke-miterlimit:10;stroke-dasharray:6.052,10.0867;}
      .st15{fill:none;stroke:#929497;stroke-width:2;stroke-linecap:round;stroke-miterlimit:10;stroke-dasharray:6.08,10.1333;}
      .st16{fill:none;stroke:#929497;stroke-width:2;stroke-linecap:round;stroke-miterlimit:10;stroke-dasharray:6.0084,10.0139;}
      .st17{fill:none;stroke:#929497;stroke-width:2;stroke-linecap:round;stroke-miterlimit:10;stroke-dasharray:6.0376,10.0627;}
      .st18{fill:none;stroke:#929497;stroke-width:2;stroke-linecap:round;stroke-miterlimit:10;stroke-dasharray:5.935,9.8917;}
      .st19{fill:none;stroke:#929497;stroke-width:2;stroke-linecap:round;stroke-miterlimit:10;stroke-dasharray:5.9564,9.9273;}
      .st20{fill:none;stroke:#929497;stroke-width:2;stroke-linecap:round;stroke-miterlimit:10;stroke-dasharray:5.9576,9.9294;}
      .st21{fill:none;stroke:#929497;stroke-width:2;stroke-linecap:round;stroke-miterlimit:10;stroke-dasharray:6.0235,10.0392;}
      .st22{fill:none;stroke:#929497;stroke-width:2;stroke-linecap:round;stroke-miterlimit:10;stroke-dasharray:5.9775,9.9624;}
      .st23{fill:none;stroke:#929497;stroke-width:2;stroke-linecap:round;stroke-miterlimit:10;stroke-dasharray:6.0183,10.0305;}
      .st24{fill:#231F20;}
      .st25{fill:#1226AA;}
      .st26{fill:#54C0E8;}
    </style>
    <g id="Padding" class="st0">
    </g>
    <g id="Artwork">
      <g id="Hwhitelogotype_1_">
        <g id="HWLTtype_1_">
          <path class="st7" d="M530,154.4c-1.5-0.5-3-1-4.5-1.4c-1.6-0.5-3-1-4.3-1.7c-1.4-0.7-2.5-1.5-3.3-2.4c-1-1.1-1.5-2.4-1.5-4     c0-2.2,0.9-4.1,2.7-5.5c1.7-1.3,3.9-2,6.6-2c2,0,4.1,0.4,6.3,1.3c1.7,0.7,3.4,1.7,5.1,2.9l6.1-12.1c-3.1-1.6-6.3-2.8-9.6-3.7     c-7.6-2-14.9-1.9-20.4,0.2c-2.9,1.1-5.3,2.6-7.3,4.5c-2,1.9-3.5,4.3-4.6,7c-1.1,2.7-1.6,5.8-1.6,9.2c0,3.4,0.5,6.1,1.5,8.3     c1,2.2,2.4,4,4,5.4c1.7,1.4,3.6,2.6,5.8,3.5c2.3,0.9,4.6,1.8,6.9,2.5c2,0.7,3.7,1.3,5.2,1.9c1.5,0.6,2.8,1.3,3.7,2     c1,0.8,1.8,1.7,2.2,2.7c0.5,1,0.7,2.1,0.7,3.4c0,2.1-0.9,4.1-2.6,5.7c-1.7,1.6-4.2,2.4-7.6,2.4c-2.8,0-5.6-0.7-8.5-1.9     c-2.4-1.1-4.9-2.7-7.3-4.7l-6.6,12.7c7.1,4.8,14.9,7.3,23.2,7.3c4.2,0,7.9-0.6,11.2-1.7v0c3.2-1.1,6-2.7,8.2-4.7     c2.2-2,3.9-4.4,5-7.2c1.1-2.8,1.7-6,1.7-9.5c0-5.1-1.3-9.4-3.9-12.5C540,159,535.8,156.3,530,154.4z"/>
          <path class="st7" d="M603.6,162.2c-2.6-3.2-6.9-5.8-12.6-7.8c-1.5-0.5-3-1-4.5-1.4c-1.6-0.5-3-1-4.3-1.7     c-1.4-0.7-2.5-1.5-3.3-2.4c-1-1.1-1.5-2.4-1.5-4c0-2.2,0.9-4.1,2.7-5.5c1.7-1.3,3.9-2,6.6-2c2,0,4.1,0.4,6.3,1.3     c1.7,0.7,3.4,1.7,5.1,2.9l6.1-12.1c-3.1-1.6-6.3-2.8-9.6-3.7c-7.6-2-14.9-1.9-20.4,0.2c-2.9,1.1-5.3,2.6-7.3,4.5     c-2,1.9-3.5,4.3-4.6,7c-1.1,2.7-1.6,5.8-1.6,9.2c0,3.4,0.5,6.1,1.5,8.3c1,2.2,2.4,4,4,5.4c1.7,1.4,3.6,2.6,5.8,3.5     c2.3,0.9,4.6,1.8,6.9,2.5c2,0.7,3.7,1.3,5.2,1.9c1.5,0.6,2.8,1.3,3.7,2c1,0.8,1.8,1.7,2.3,2.7c0.5,1,0.7,2.1,0.7,3.4     c0,2.1-0.9,4.1-2.6,5.7c-1.7,1.6-4.2,2.4-7.6,2.4c-2.8,0-5.6-0.7-8.5-1.9c-2.4-1.1-4.9-2.7-7.3-4.7l-6.6,12.7     c7.1,4.8,14.9,7.3,23.2,7.3c4.2,0,7.9-0.6,11.2-1.7v0c3.2-1.1,6-2.7,8.2-4.7c2.2-2,3.9-4.4,5-7.2c1.1-2.8,1.7-6,1.7-9.5     C607.5,169.5,606.1,165.3,603.6,162.2z"/>
          <polygon class="st7" points="416.6,125.8 416.6,196.5 431.9,196.5 431.9,165.3 450.2,185.2 468,165.4 468.3,196.5 483.3,196.5      483.3,125.8 450.2,163.3    "/>
          <polygon class="st7" points="345,153.6 308.9,153.6 308.9,126.1 293.7,126.1 293.7,153.6 293.7,153.6 293.7,169.1 293.7,169.1      293.7,196.5 308.9,196.5 308.9,169.1 345,169.1 345,196.5 360.3,196.5 360.3,126.1 345,126.1    "/>
          <rect x="380.8" y="126.1" class="st7" width="15.3" height="70.4"/>
        </g>
        <g id="HWLTmark_1_">
          
            <ellipse transform="matrix(0.7071 -0.7071 0.7071 0.7071 -128.2993 183.4645)" class="st26" cx="157.3" cy="246.6" rx="6.9" ry="6.9"/>
          <circle class="st26" cx="136.8" cy="244.1" r="6.7"/>
          <path class="st26" d="M117.5,230.3c-3.6,0-6.5,2.9-6.5,6.5c0,3.6,2.9,6.5,6.5,6.5s6.5-2.9,6.5-6.5     C124,233.2,121.1,230.3,117.5,230.3z"/>
          
            <ellipse transform="matrix(0.7071 -0.7071 0.7071 0.7071 -129.7038 136.9794)" class="st26" cx="100.5" cy="225.1" rx="6.3" ry="6.3"/>
          <circle class="st26" cx="86.8" cy="209.6" r="6.1"/>
          
            <ellipse transform="matrix(0.9732 -0.2298 0.2298 0.9732 -41.8902 22.8507)" class="st26" cx="77.2" cy="191.3" rx="5.9" ry="5.9"/>
          <circle class="st26" cx="72.3" cy="171.3" r="5.7"/>
          <path class="st26" d="M72.3,156.2c3.1,0,5.6-2.5,5.6-5.6c0-3.1-2.5-5.6-5.6-5.6s-5.6,2.5-5.6,5.6     C66.6,153.7,69.2,156.2,72.3,156.2z"/>
          <path class="st26" d="M77.2,136c3,0,5.4-2.4,5.4-5.4c0-3-2.4-5.4-5.4-5.4s-5.4,2.4-5.4,5.4C71.8,133.5,74.2,136,77.2,136z"/>
          
            <ellipse transform="matrix(0.7071 -0.7071 0.7071 0.7071 -53.9548 94.2546)" class="st26" cx="86.8" cy="112.3" rx="5.2" ry="5.2"/>
          <circle class="st26" cx="100.5" cy="96.8" r="5.1"/>
          
            <ellipse transform="matrix(0.9732 -0.2298 0.2298 0.9732 -16.3977 29.2697)" class="st26" cx="117.5" cy="85.1" rx="4.9" ry="4.9"/>
          <path class="st26" d="M136.8,82.4c2.6,0,4.7-2.1,4.7-4.7c0-2.6-2.1-4.7-4.7-4.7c-2.6,0-4.7,2.1-4.7,4.7     C132.1,80.3,134.2,82.4,136.8,82.4z"/>
          
            <ellipse transform="matrix(0.7071 -0.7071 0.7071 0.7071 -113.1247 177.1789)" class="st26" cx="157.3" cy="225.1" rx="6.9" ry="6.9"/>
          <path class="st26" d="M137.5,215.4c-3.7,0-6.6,3-6.6,6.6c0,3.7,3,6.6,6.6,6.6s6.6-3,6.6-6.6C144.1,218.4,141.1,215.4,137.5,215.4     z"/>
          
            <ellipse transform="matrix(0.3827 -0.9239 0.9239 0.3827 -122.8685 241.8767)" class="st26" cx="119.6" cy="212.9" rx="6.4" ry="6.4"/>
          <path class="st26" d="M105.4,192.5c-3.4,0-6.2,2.8-6.2,6.2c0,3.4,2.8,6.2,6.2,6.2c3.4,0,6.2-2.8,6.2-6.2     C111.5,195.3,108.7,192.5,105.4,192.5z"/>
          <path class="st26" d="M96.2,186.7c3.3,0,5.9-2.7,5.9-5.9s-2.7-5.9-5.9-5.9s-5.9,2.7-5.9,5.9S93,186.7,96.2,186.7z"/>
          
            <ellipse transform="matrix(0.9732 -0.2298 0.2298 0.9732 -34.4805 25.6944)" class="st26" cx="93.1" cy="160.9" rx="5.7" ry="5.7"/>
          
            <ellipse transform="matrix(0.9732 -0.2298 0.2298 0.9732 -29.8359 25.8829)" class="st26" cx="96.2" cy="141.1" rx="5.4" ry="5.4"/>
          <path class="st26" d="M100.2,123.2c0,2.9,2.3,5.2,5.2,5.2c2.9,0,5.2-2.3,5.2-5.2s-2.3-5.2-5.2-5.2     C102.5,118,100.2,120.3,100.2,123.2z"/>
          <path class="st26" d="M114.6,109c0,2.7,2.2,5,5,5c2.7,0,5-2.2,5-5c0-2.7-2.2-5-5-5C116.8,104,114.6,106.2,114.6,109z"/>
          <path class="st26" d="M137.5,95.1c-2.6,0-4.7,2.1-4.7,4.7c0,2.6,2.1,4.7,4.7,4.7s4.7-2.1,4.7-4.7     C142.2,97.2,140.1,95.1,137.5,95.1z"/>
          
            <ellipse transform="matrix(0.7071 -0.7071 0.7071 0.7071 -97.8773 170.8633)" class="st26" cx="157.3" cy="203.6" rx="6.9" ry="6.9"/>
          <path class="st26" d="M137.5,192c-3.7,0-6.7,3-6.7,6.7s3,6.7,6.7,6.7c3.7,0,6.7-3,6.7-6.7S141.2,192,137.5,192z"/>
          <path class="st26" d="M122.2,178.8c-3.5,0-6.3,2.8-6.3,6.3s2.8,6.3,6.3,6.3s6.3-2.8,6.3-6.3S125.7,178.8,122.2,178.8z"/>
          <path class="st26" d="M115,172c3.3,0,5.9-2.7,5.9-5.9c0-3.3-2.7-5.9-5.9-5.9s-5.9,2.7-5.9,5.9C109,169.4,111.7,172,115,172z"/>
          <path class="st26" d="M117.4,151.3c3,0,5.5-2.5,5.5-5.5c0-3-2.5-5.5-5.5-5.5c-3,0-5.5,2.5-5.5,5.5     C111.9,148.9,114.4,151.3,117.4,151.3z"/>
          <circle class="st26" cx="129" cy="129" r="5.1"/>
          <path class="st26" d="M147.1,114.9c-2.6,0-4.6,2.1-4.6,4.6s2.1,4.6,4.6,4.6s4.6-2.1,4.6-4.6S149.6,114.9,147.1,114.9z"/>
          <path class="st26" d="M157.3,79.8c2.5,0,4.5-2,4.5-4.5s-2-4.5-4.5-4.5s-4.5,2-4.5,4.5S154.8,79.8,157.3,79.8z"/>
          <path class="st26" d="M177.8,82.1c2.4,0,4.4-2,4.4-4.4s-2-4.4-4.4-4.4c-2.4,0-4.4,2-4.4,4.4S175.4,82.1,177.8,82.1z"/>
          <path class="st26" d="M197.1,89.2c2.3,0,4.2-1.9,4.2-4.2s-1.9-4.2-4.2-4.2s-4.2,1.9-4.2,4.2S194.8,89.2,197.1,89.2z"/>
          <path class="st26" d="M214.1,100.7c2.2,0,3.9-1.8,3.9-3.9c0-2.2-1.8-3.9-3.9-3.9c-2.2,0-3.9,1.8-3.9,3.9     C210.2,99,212,100.7,214.1,100.7z"/>
          <path class="st26" d="M227.8,108.5c-2.1,0-3.8,1.7-3.8,3.8s1.7,3.8,3.8,3.8s3.8-1.7,3.8-3.8S229.9,108.5,227.8,108.5z"/>
          <path class="st26" d="M237.4,134.2c2,0,3.6-1.6,3.6-3.6c0-2-1.6-3.6-3.6-3.6c-2,0-3.6,1.6-3.6,3.6     C233.8,132.5,235.5,134.2,237.4,134.2z"/>
          <path class="st26" d="M238.9,150.6c0,1.9,1.5,3.4,3.4,3.4s3.4-1.5,3.4-3.4c0-1.9-1.5-3.4-3.4-3.4S238.9,148.7,238.9,150.6z"/>
          <circle class="st26" cx="242.4" cy="171.3" r="3.3"/>
          <path class="st26" d="M237.4,188.2c-1.7,0-3.1,1.4-3.1,3.1s1.4,3.1,3.1,3.1c1.7,0,3.1-1.4,3.1-3.1S239.2,188.2,237.4,188.2z"/>
          <path class="st26" d="M227.8,206.7c-1.6,0-2.9,1.3-2.9,2.9s1.3,2.9,2.9,2.9s2.9-1.3,2.9-2.9S229.4,206.7,227.8,206.7z"/>
          <circle class="st26" cx="214.1" cy="225.1" r="2.8"/>
          <path class="st26" d="M197.1,234.2c-1.4,0-2.6,1.2-2.6,2.6s1.2,2.6,2.6,2.6c1.4,0,2.6-1.2,2.6-2.6S198.6,234.2,197.1,234.2z"/>
          <circle class="st26" cx="177.8" cy="244.1" r="2.4"/>
          <path class="st26" d="M157.3,92.2c-2.5,0-4.6,2-4.6,4.6s2,4.6,4.6,4.6s4.6-2,4.6-4.6S159.8,92.2,157.3,92.2z"/>
          <path class="st26" d="M177.2,95.5c-2.4,0-4.3,1.9-4.3,4.3c0,2.4,1.9,4.3,4.3,4.3c2.4,0,4.3-1.9,4.3-4.3     C181.5,97.5,179.6,95.5,177.2,95.5z"/>
          <path class="st26" d="M195.1,113.1c2.2,0,4.1-1.8,4.1-4.1s-1.8-4.1-4.1-4.1s-4.1,1.8-4.1,4.1S192.8,113.1,195.1,113.1z"/>
          <circle class="st26" cx="209.3" cy="123.2" r="3.8"/>
          <path class="st26" d="M214.8,141.1c0,2,1.6,3.6,3.6,3.6c2,0,3.6-1.6,3.6-3.6c0-2-1.6-3.6-3.6-3.6     C216.4,137.5,214.8,139.1,214.8,141.1z"/>
          <path class="st26" d="M221.5,157.6c-1.9,0-3.4,1.5-3.4,3.4s1.5,3.4,3.4,3.4s3.4-1.5,3.4-3.4S223.4,157.6,221.5,157.6z"/>
          <circle class="st26" cx="218.4" cy="180.8" r="3.1"/>
          <path class="st26" d="M209.2,195.8c-1.6,0-2.9,1.3-2.9,2.9s1.3,2.9,2.9,2.9c1.6,0,2.9-1.3,2.9-2.9S210.9,195.8,209.2,195.8z"/>
          <path class="st26" d="M197.7,212.9c0-1.5-1.2-2.7-2.7-2.7c-1.5,0-2.7,1.2-2.7,2.7c0,1.5,1.2,2.7,2.7,2.7     C196.5,215.6,197.7,214.4,197.7,212.9z"/>
          <circle class="st26" cx="177.1" cy="222" r="2.5"/>
          <circle class="st26" cx="167.5" cy="119.5" r="4.4"/>
          <path class="st26" d="M185.6,125c-2.2,0-4,1.8-4,4c0,2.2,1.8,4,4,4c2.2,0,4-1.8,4-4C189.6,126.8,187.8,125,185.6,125z"/>
          <path class="st26" d="M197.2,142.1c-2,0-3.6,1.6-3.6,3.6s1.6,3.6,3.6,3.6s3.6-1.6,3.6-3.6S199.2,142.1,197.2,142.1z"/>
          <path class="st26" d="M199.7,162.6c-1.9,0-3.4,1.5-3.4,3.4s1.5,3.4,3.4,3.4s3.4-1.5,3.4-3.4S201.5,162.6,199.7,162.6z"/>
          <path class="st26" d="M195.5,185.1c0-1.7-1.4-3.1-3-3.1s-3,1.4-3,3.1s1.4,3,3,3S195.5,186.8,195.5,185.1z"/>
          <circle class="st26" cx="177.2" cy="198.7" r="2.7"/>
        </g>
      </g>
      <g>
        <path class="st7" d="M616.8,134.3c-0.7,0-1.5-0.3-2.1-0.6l0.4-1c0.5,0.4,1.2,0.6,1.7,0.6c0.7,0,1-0.4,1-0.9c0-0.5-0.2-0.7-1.2-1.2    c-1.2-0.5-1.6-1.1-1.6-1.9c0-1,0.8-1.8,2.2-1.8c0.6,0,1.3,0.2,1.7,0.5l-0.4,1c-0.4-0.2-0.9-0.5-1.3-0.5c-0.7,0-1,0.4-1,0.8    c0,0.4,0.3,0.7,1.1,1.1c1.3,0.6,1.7,1.1,1.7,2C618.9,133.4,618.1,134.3,616.8,134.3z"/>
        <path class="st7" d="M626.2,134.2l-0.1-4l-2.1,3.2h-0.1l-2.1-3.2l-0.1,4h-1.1l0.3-6.7l0.2,0l2.9,4.4l2.9-4.4l0.2,0l0.3,6.7H626.2z    "/>
      </g>
    </g>
    </svg>